<svg width="500" height="500" viewBox="0 0 500 500" fill="none" xmlns="http://www.w3.org/2000/svg">
<path d="M0 250C0 132.149 0 73.2233 36.6116 36.6116C73.2233 0 132.149 0 250 0C367.851 0 426.776 0 463.389 36.6116C500 73.2233 500 132.149 500 250C500 367.851 500 426.776 463.389 463.389C426.776 500 367.851 500 250 500C132.149 500 73.2233 500 36.6116 463.389C0 426.776 0 367.851 0 250Z" fill="white"/>
<path d="M190.494 126.5H338.066L229.571 287.31H82L190.494 126.5Z" fill="black"/>
<path d="M196.957 302.214L154.935 364.5H309.506L418 203.689H303.917L237.445 302.214H196.957Z" fill="#535353"/>
</svg>
