<svg width="168" height="40" viewBox="0 0 168 40" fill="none" xmlns="http://www.w3.org/2000/svg">
<path d="M0 20C0 10.5719 0 5.85786 2.92893 2.92893C5.85786 0 10.5719 0 20 0C29.4281 0 34.1421 0 37.0711 2.92893C40 5.85786 40 10.5719 40 20C40 29.4281 40 34.1421 37.0711 37.0711C34.1421 40 29.4281 40 20 40C10.5719 40 5.85786 40 2.92893 37.0711C0 34.1421 0 29.4281 0 20Z" fill="white"/>
<path d="M15.2396 10.1201H27.0453L18.3658 22.9849H6.56006L15.2396 10.1201Z" fill="black"/>
<path d="M15.7563 24.1769L12.3945 29.1597H24.7602L33.4398 16.2949H24.3131L18.9954 24.1769H15.7563Z" fill="#535353"/>
<path d="M47.475 32V8.9H52.425V32H47.475ZM72.3671 21.4565V32H67.4171V22.8425C67.4171 22.3255 67.2906 21.858 67.0376 21.44C66.7846 21.011 66.4491 20.6755 66.0311 20.4335C65.6131 20.1805 65.1456 20.054 64.6286 20.054C64.1116 20.054 63.6386 20.1805 63.2096 20.4335C62.7916 20.6755 62.4561 21.011 62.2031 21.44C61.9611 21.858 61.8401 22.3255 61.8401 22.8425V32H56.8901L56.8736 15.5H61.8236L61.8401 16.5395C62.3901 16.0665 63.0171 15.698 63.7211 15.434C64.4251 15.17 65.1676 15.038 65.9486 15.038C67.1366 15.038 68.2146 15.3295 69.1826 15.9125C70.1506 16.4845 70.9206 17.2545 71.4926 18.2225C72.0756 19.1905 72.3671 20.2685 72.3671 21.4565ZM86.1128 32H79.7108L73.7048 15.5H78.9848L82.9118 26.324L86.8388 15.5H92.1188L86.1128 32ZM101.033 32.429C99.515 32.429 98.129 32.0385 96.875 31.2575C95.632 30.4765 94.6365 29.4315 93.8885 28.1225C93.1515 26.8025 92.783 25.345 92.783 23.75C92.783 22.54 92.9975 21.4125 93.4265 20.3675C93.8555 19.3115 94.444 18.3875 95.192 17.5955C95.951 16.7925 96.831 16.1655 97.832 15.7145C98.833 15.2635 99.9 15.038 101.033 15.038C102.551 15.038 103.931 15.4285 105.174 16.2095C106.428 16.9905 107.424 18.041 108.161 19.361C108.909 20.681 109.283 22.144 109.283 23.75C109.283 24.949 109.068 26.071 108.639 27.116C108.21 28.161 107.616 29.085 106.857 29.888C106.109 30.68 105.235 31.3015 104.234 31.7525C103.244 32.2035 102.177 32.429 101.033 32.429ZM101.033 27.479C101.66 27.479 102.221 27.3085 102.716 26.9675C103.222 26.6265 103.618 26.1755 103.904 25.6145C104.19 25.0425 104.333 24.421 104.333 23.75C104.333 23.057 104.179 22.4245 103.871 21.8525C103.574 21.2805 103.172 20.8295 102.666 20.4995C102.171 20.1585 101.627 19.988 101.033 19.988C100.417 19.988 99.856 20.164 99.35 20.516C98.855 20.857 98.459 21.3135 98.162 21.8855C97.876 22.4575 97.733 23.079 97.733 23.75C97.733 24.454 97.8815 25.0865 98.1785 25.6475C98.4865 26.2085 98.888 26.654 99.383 26.984C99.889 27.314 100.439 27.479 101.033 27.479ZM111.579 32V27.05L123.558 13.85H111.579V8.9H130.257V13.85L118.278 27.05H130.257V32H111.579ZM140.156 32.429C138.638 32.429 137.252 32.0385 135.998 31.2575C134.755 30.4765 133.76 29.426 133.012 28.106C132.275 26.786 131.906 25.3285 131.906 23.7335C131.906 22.5345 132.121 21.4125 132.55 20.3675C132.979 19.3115 133.567 18.3875 134.315 17.5955C135.074 16.7925 135.954 16.1655 136.955 15.7145C137.956 15.2635 139.023 15.038 140.156 15.038C141.476 15.038 142.681 15.3295 143.77 15.9125C144.87 16.4845 145.794 17.2655 146.542 18.2555C147.301 19.2345 147.84 20.34 148.159 21.572C148.478 22.804 148.511 24.0745 148.258 25.3835H137.252C137.406 25.7685 137.61 26.1205 137.863 26.4395C138.127 26.7475 138.446 26.995 138.82 27.182C139.205 27.369 139.65 27.468 140.156 27.479C140.64 27.49 141.086 27.3855 141.493 27.1655C141.911 26.9455 142.274 26.6485 142.582 26.2745L147.631 27.446C146.96 28.909 145.959 30.108 144.628 31.043C143.297 31.967 141.806 32.429 140.156 32.429ZM137.071 21.7535H143.258C143.104 21.2805 142.873 20.8625 142.565 20.4995C142.257 20.1365 141.894 19.8505 141.476 19.6415C141.069 19.4325 140.629 19.328 140.156 19.328C139.694 19.328 139.254 19.4325 138.836 19.6415C138.429 19.8505 138.072 20.1365 137.764 20.4995C137.467 20.8625 137.236 21.2805 137.071 21.7535ZM166.372 21.4565V32H161.422V22.8425C161.422 22.3255 161.295 21.858 161.042 21.44C160.789 21.011 160.454 20.6755 160.036 20.4335C159.618 20.1805 159.15 20.054 158.633 20.054C158.116 20.054 157.643 20.1805 157.214 20.4335C156.796 20.6755 156.461 21.011 156.208 21.44C155.966 21.858 155.845 22.3255 155.845 22.8425V32H150.895L150.878 15.5H155.828L155.845 16.5395C156.395 16.0665 157.022 15.698 157.726 15.434C158.43 15.17 159.172 15.038 159.953 15.038C161.141 15.038 162.219 15.3295 163.187 15.9125C164.155 16.4845 164.925 17.2545 165.497 18.2225C166.08 19.1905 166.372 20.2685 166.372 21.4565Z" fill="white"/>
</svg>
